<?xml version="1.0" standalone="no"?>
<!DOCTYPE svg PUBLIC "-//W3C//DTD SVG 20010904//EN"
 "http://www.w3.org/TR/2001/REC-SVG-20010904/DTD/svg10.dtd">
<svg version="1.0" xmlns="http://www.w3.org/2000/svg"
 width="295.000000pt" height="200.000000pt" viewBox="0 0 295.000000 200.000000"
 preserveAspectRatio="xMidYMid meet">

<g transform="translate(0.000000,200.000000) scale(0.100000,-0.100000)"
fill="#000000" stroke="none">
<path d="M70 995 l0 -955 484 0 c528 0 578 4 691 56 166 76 261 212 296 422
13 78 3 162 -32 264 -56 167 -191 285 -372 325 -86 19 -100 29 -55 38 60 13
165 73 213 122 26 26 62 77 79 113 28 60 31 73 31 165 -1 80 -5 111 -23 157
-30 75 -96 147 -171 187 -106 56 -160 61 -677 61 l-464 0 0 -955z m809 920
c193 -28 300 -102 357 -245 23 -60 26 -78 22 -152 -6 -107 -38 -179 -110 -251
-115 -115 -211 -137 -588 -134 -246 2 -278 4 -301 20 -15 10 -30 28 -33 40 -3
12 -6 169 -6 348 0 365 -1 358 70 378 59 16 468 13 589 -4z m81 -829 c209 -44
342 -163 390 -350 74 -289 -51 -541 -310 -629 -83 -28 -199 -37 -476 -37 -296
0 -325 4 -338 52 -3 13 -6 223 -6 468 0 492 -2 476 64 506 44 21 567 12 676
-10z"/>
<path d="M1780 1940 c0 -6 53 -10 139 -10 342 0 507 -42 631 -161 121 -116
168 -331 114 -525 -46 -166 -194 -292 -387 -329 -54 -10 -145 -15 -288 -15
-172 0 -209 -2 -209 -14 0 -10 19 -15 73 -18 48 -2 87 -11 118 -26 49 -24 173
-144 235 -227 255 -340 338 -444 411 -510 69 -61 78 -64 188 -65 l100 0 -50
42 c-124 103 -226 218 -420 474 -49 65 -129 157 -177 205 -104 102 -103 109
21 109 347 1 581 218 581 540 0 267 -170 476 -426 525 -91 18 -654 22 -654 5z"/>
</g>
</svg>
